<svg width="32" height="32" viewBox="0 0 32 32" fill="none" xmlns="http://www.w3.org/2000/svg">
<rect width="32" height="32" rx="2" fill="#7F56D9"/>
<path d="M14.7045 13C14.5483 12.5218 14.3423 12.0933 14.0866 11.7145C13.8357 11.331 13.535 11.0043 13.1847 10.7344C12.839 10.4645 12.446 10.2585 12.0057 10.1165C11.5653 9.97443 11.0824 9.90341 10.5568 9.90341C9.69508 9.90341 8.91146 10.1259 8.20597 10.571C7.50047 11.0161 6.93939 11.6719 6.52273 12.5384C6.10606 13.4048 5.89773 14.4678 5.89773 15.7273C5.89773 16.9867 6.10843 18.0497 6.52983 18.9162C6.95123 19.7827 7.52178 20.4384 8.24148 20.8835C8.96117 21.3286 9.77083 21.5511 10.6705 21.5511C11.5038 21.5511 12.2377 21.3736 12.8722 21.0185C13.5114 20.6586 14.0085 20.152 14.3636 19.4986C14.7235 18.8404 14.9034 18.0663 14.9034 17.1761L15.4432 17.2898H11.0682V15.7273H16.608V17.2898C16.608 18.4877 16.3523 19.5294 15.8409 20.4148C15.3343 21.3002 14.6335 21.9867 13.7386 22.4744C12.8485 22.9574 11.8258 23.1989 10.6705 23.1989C9.38258 23.1989 8.25095 22.8958 7.27557 22.2898C6.30492 21.6837 5.54735 20.822 5.00284 19.7045C4.46307 18.5871 4.19318 17.2614 4.19318 15.7273C4.19318 14.5767 4.34706 13.5421 4.65483 12.6236C4.96733 11.7003 5.40767 10.9143 5.97585 10.2656C6.54403 9.61695 7.21638 9.11979 7.9929 8.77415C8.76941 8.4285 9.62405 8.25568 10.5568 8.25568C11.3239 8.25568 12.0388 8.37169 12.7017 8.60369C13.3693 8.83097 13.9635 9.1553 14.4844 9.5767C15.0099 9.99337 15.4479 10.4929 15.7983 11.0753C16.1487 11.6529 16.3902 12.2945 16.5227 13H14.7045ZM19.6246 23V8.45455H28.3462V10.017H21.386V14.9318H27.6928V16.4943H21.386V23H19.6246Z" fill="white"/>
</svg>
